<?xml version="1.0" encoding="UTF-8"?>
<svg width="245px" height="40px" viewBox="0 0 245 40" version="1.1" xmlns="http://www.w3.org/2000/svg" xmlns:xlink="http://www.w3.org/1999/xlink">
    <!-- Generator: Sketch 49.3 (51167) - http://www.bohemiancoding.com/sketch -->
    <title>Group 3</title>
    <desc>Created with Sketch.</desc>
    <defs></defs>
    <g id="Page-1" stroke="none" stroke-width="1" fill="none" fill-rule="evenodd">
        <g id="Landing---Categories" transform="translate(-20.000000, -90.000000)" fill="#FFFFFF">
            <g id="Group-3" transform="translate(20.000000, 90.000000)">
                <g id="Group-5">
                    <path d="M9.15,1.18888889 L17,1.18888889 L26.05,38.8888889 L18.1,38.8888889 L16.7,32.5388889 L9.15,32.5388889 L7.8,38.8888889 L0.4,38.8888889 L9.15,1.18888889 Z M15.6,26.6388889 L13.7,16.5888889 L12.85,10.8888889 L12.75,10.8888889 L11.95,16.5888889 L10.35,26.6388889 L15.6,26.6388889 Z M43.45,2.43888889 L43.45,9.68888889 C41.95,8.38888889 40.1,7.28888889 38.05,7.28888889 C35.75,7.28888889 34.3,8.68888889 34.3,10.9888889 C34.3,17.1888889 45.65,17.5388889 45.65,27.7388889 C45.65,34.4388889 41.8,39.4888889 34.8,39.4888889 C32.7,39.4888889 30.1,38.8388889 28.4,37.5888889 L28.4,30.4888889 C30.15,31.6888889 31.85,32.4888889 34.05,32.4888889 C36.45,32.4888889 38.35,30.8888889 38.35,28.3888889 C38.35,25.4888889 36.05,24.3888889 33.95,22.8888889 C29.65,19.9888889 27,17.1888889 27,11.6888889 C27,5.73888889 30.45,0.588888889 36.85,0.588888889 C39.25,0.588888889 41.4,1.23888889 43.45,2.43888889 Z M48.85,1.18888889 L56.3,1.18888889 L56.3,18.0388889 L56.4,18.0388889 L62.6,1.18888889 L70.2,1.18888889 L63.25,18.5888889 L71.1,38.8888889 L63.25,38.8888889 L56.4,19.6888889 L56.3,19.6888889 L56.3,38.8888889 L48.85,38.8888889 L48.85,1.18888889 Z M80.65,38.8888889 L73.4,38.8888889 L73.4,1.18888889 L80.7,1.18888889 C83.6,1.18888889 86.1,1.28888889 88.5,3.23888889 C91,5.23888889 92.35,8.58888889 92.35,11.7388889 C92.35,15.0888889 91.1,17.6388889 88.3,19.5388889 C91.4,21.0388889 92.95,25.0388889 92.95,28.2888889 C92.95,35.7388889 87.45,38.8888889 80.65,38.8888889 Z M85.6,27.4388889 C85.6,24.4888889 83.8,22.3388889 80.85,22.4388889 L80.85,32.6388889 C83.85,32.7888889 85.6,30.5888889 85.6,27.4388889 Z M85.3,11.8888889 C85.3,9.13888889 83.7,7.28888889 80.85,7.43888889 L80.85,16.6388889 C83.65,16.6388889 85.3,14.7388889 85.3,11.8888889 Z M103.7,38.8888889 L96.25,38.8888889 L96.25,1.18888889 L103.75,1.18888889 C108.5,1.18888889 117,1.68888889 117,11.9888889 C117,16.1388889 115.35,19.6888889 111.65,21.7388889 L118.2,38.8888889 L110.35,38.8888889 L103.8,21.4888889 L103.7,21.4888889 L103.7,38.8888889 Z M103.7,7.33888889 L103.7,17.3888889 L105,17.4388889 C108.4,17.4388889 109.75,15.1388889 109.75,12.0388889 C109.75,9.33888889 108.45,7.13888889 104.7,7.33888889 L103.7,7.33888889 Z M132.438889,0.588888889 C139.088889,0.588888889 145.688889,5.88888889 145.688889,20.0388889 C145.688889,34.1888889 139.088889,39.4888889 132.438889,39.4888889 C125.788889,39.4888889 119.188889,34.1888889 119.188889,20.0388889 C119.188889,5.88888889 125.788889,0.588888889 132.438889,0.588888889 Z M127.138889,20.0388889 C127.138889,23.0388889 127.488889,32.5888889 132.438889,32.5888889 C137.388889,32.5888889 137.738889,23.0388889 137.738889,20.0388889 C137.738889,16.6888889 137.388889,7.48888889 132.438889,7.48888889 C127.488889,7.48888889 127.138889,16.6888889 127.138889,20.0388889 Z M148.538889,1.18888889 L155.988889,1.18888889 L155.988889,18.0388889 L156.088889,18.0388889 L162.288889,1.18888889 L169.888889,1.18888889 L162.938889,18.5888889 L170.788889,38.8888889 L162.938889,38.8888889 L156.088889,19.6888889 L155.988889,19.6888889 L155.988889,38.8888889 L148.538889,38.8888889 L148.538889,1.18888889 Z M173.088889,1.18888889 L188.088889,1.18888889 L188.088889,8.18888889 L180.538889,8.18888889 L180.538889,16.3888889 L187.188889,16.3888889 L187.188889,23.3888889 L180.538889,23.3888889 L180.538889,31.8888889 L188.188889,31.8888889 L188.188889,38.8888889 L173.088889,38.8888889 L173.088889,1.18888889 Z M199.038889,38.8888889 L191.588889,38.8888889 L191.588889,1.18888889 L199.088889,1.18888889 C203.838889,1.18888889 212.338889,1.68888889 212.338889,11.9888889 C212.338889,16.1388889 210.688889,19.6888889 206.988889,21.7388889 L213.538889,38.8888889 L205.688889,38.8888889 L199.138889,21.4888889 L199.038889,21.4888889 L199.038889,38.8888889 Z M199.038889,7.33888889 L199.038889,17.3888889 L200.338889,17.4388889 C203.738889,17.4388889 205.088889,15.1388889 205.088889,12.0388889 C205.088889,9.33888889 203.788889,7.13888889 200.038889,7.33888889 L199.038889,7.33888889 Z M231.377778,2.43888889 L231.377778,9.68888889 C229.877778,8.38888889 228.027778,7.28888889 225.977778,7.28888889 C223.677778,7.28888889 222.227778,8.68888889 222.227778,10.9888889 C222.227778,17.1888889 233.577778,17.5388889 233.577778,27.7388889 C233.577778,34.4388889 229.727778,39.4888889 222.727778,39.4888889 C220.627778,39.4888889 218.027778,38.8388889 216.327778,37.5888889 L216.327778,30.4888889 C218.077778,31.6888889 219.777778,32.4888889 221.977778,32.4888889 C224.377778,32.4888889 226.277778,30.8888889 226.277778,28.3888889 C226.277778,25.4888889 223.977778,24.3888889 221.877778,22.8888889 C217.577778,19.9888889 214.927778,17.1888889 214.927778,11.6888889 C214.927778,5.73888889 218.377778,0.588888889 224.777778,0.588888889 C227.177778,0.588888889 229.327778,1.23888889 231.377778,2.43888889 Z" id="ASKBROKERS"></path>
                    <path d="M239.555556,10.5555556 C240.444444,10.5555556 241.222222,10.4444444 241.888889,10 C242.666667,9.66666667 243.222222,9.11111111 243.666667,8.33333333 C244.111111,7.66666667 244.333333,6.66666667 244.333333,5.66666667 C244.222222,4.66666667 244,3.88888889 243.555556,3.22222222 C243.111111,2.55555556 242.555556,2 241.777778,1.66666667 C241.111111,1.33333333 240.333333,1.11111111 239.555556,1.11111111 C238.222222,1.11111111 237.111111,1.55555556 236.111111,2.33333333 C235.111111,3.11111111 234.666667,4.22222222 234.444444,5.66666667 C234.444444,7.22222222 234.888889,8.33333333 235.888889,9.22222222 C237.111111,10.1111111 238.222222,10.5555556 239.555556,10.5555556 Z" id="Path"></path>
                </g>
            </g>
        </g>
    </g>
</svg>