<?xml version="1.0" encoding="UTF-8"?>
<svg width="123px" height="20px" viewBox="0 0 123 20" version="1.1" xmlns="http://www.w3.org/2000/svg" xmlns:xlink="http://www.w3.org/1999/xlink">
    <!-- Generator: Sketch 50.2 (55047) - http://www.bohemiancoding.com/sketch -->
    <title>Group 27</title>
    <desc>Created with Sketch.</desc>
    <defs></defs>
    <g id="Page-1" stroke="none" stroke-width="1" fill="none" fill-rule="evenodd">
        <g id="Landing---Logged-out" transform="translate(-20.000000, -1460.000000)" fill="#58626B">
            <g id="Group-27" transform="translate(20.000000, 1460.000000)">
                <path d="M4.59367347,0.594444444 L8.53469388,0.594444444 L13.0781633,19.4444444 L9.08693878,19.4444444 L8.38408163,16.2694444 L4.59367347,16.2694444 L3.91591837,19.4444444 L0.200816327,19.4444444 L4.59367347,0.594444444 Z M7.83183673,13.3194444 L6.87795918,8.29444444 L6.45122449,5.44444444 L6.40102041,5.44444444 L5.99938776,8.29444444 L5.19612245,13.3194444 L7.83183673,13.3194444 Z M21.8136735,1.21944444 L21.8136735,4.84444444 C21.0606122,4.19444444 20.1318367,3.64444444 19.1026531,3.64444444 C17.9479592,3.64444444 17.22,4.34444444 17.22,5.49444444 C17.22,8.59444444 22.9181633,8.76944444 22.9181633,13.8694444 C22.9181633,17.2194444 20.9853061,19.7444444 17.4710204,19.7444444 C16.4167347,19.7444444 15.1114286,19.4194444 14.2579592,18.7944444 L14.2579592,15.2444444 C15.1365306,15.8444444 15.99,16.2444444 17.0944898,16.2444444 C18.2993877,16.2444444 19.2532653,15.4444444 19.2532653,14.1944444 C19.2532653,12.7444444 18.0985714,12.1944444 17.0442857,11.4444444 C14.8855102,9.99444444 13.555102,8.59444444 13.555102,5.84444444 C13.555102,2.86944444 15.2871429,0.294444444 18.5002041,0.294444444 C19.705102,0.294444444 20.7844898,0.619444444 21.8136735,1.21944444 Z M24.5246939,0.594444444 L28.2648979,0.594444444 L28.2648979,9.01944444 L28.315102,9.01944444 L31.4277551,0.594444444 L35.2432653,0.594444444 L31.7540816,9.29444444 L35.695102,19.4444444 L31.7540816,19.4444444 L28.315102,9.84444444 L28.2648979,9.84444444 L28.2648979,19.4444444 L24.5246939,19.4444444 L24.5246939,0.594444444 Z M40.4895918,19.4444444 L36.8497959,19.4444444 L36.8497959,0.594444444 L40.5146939,0.594444444 C41.9706122,0.594444444 43.2257143,0.644444444 44.4306122,1.61944444 C45.6857143,2.61944444 46.3634694,4.29444444 46.3634694,5.86944444 C46.3634694,7.54444444 45.7359184,8.81944444 44.3302041,9.76944444 C45.8865306,10.5194444 46.6646939,12.5194444 46.6646939,14.1444444 C46.6646939,17.8694444 43.9034694,19.4444444 40.4895918,19.4444444 Z M42.9746939,13.7194444 C42.9746939,12.2444444 42.0710204,11.1694444 40.59,11.2194444 L40.59,16.3194444 C42.0961224,16.3944444 42.9746939,15.2944444 42.9746939,13.7194444 Z M42.8240816,5.94444444 C42.8240816,4.56944444 42.0208163,3.64444444 40.59,3.71944444 L40.59,8.31944444 C41.9957143,8.31944444 42.8240816,7.36944444 42.8240816,5.94444444 Z M52.0616326,19.4444444 L48.3214286,19.4444444 L48.3214286,0.594444444 L52.0867347,0.594444444 C54.4714286,0.594444444 58.7387755,0.844444444 58.7387755,5.99444444 C58.7387755,8.06944444 57.9104081,9.84444444 56.0528571,10.8694444 L59.3412245,19.4444444 L55.4002041,19.4444444 L52.1118367,10.7444444 L52.0616326,10.7444444 L52.0616326,19.4444444 Z M52.0616326,3.66944444 L52.0616326,8.69444444 L52.7142857,8.71944444 C54.4212245,8.71944444 55.0989796,7.56944444 55.0989796,6.01944444 C55.0989796,4.66944444 54.4463265,3.56944444 52.5636734,3.66944444 L52.0616326,3.66944444 Z M66.4897279,0.294444444 C69.8282993,0.294444444 73.1417687,2.94444444 73.1417687,10.0194444 C73.1417687,17.0944444 69.8282993,19.7444444 66.4897279,19.7444444 C63.1511564,19.7444444 59.837687,17.0944444 59.837687,10.0194444 C59.837687,2.94444444 63.1511564,0.294444444 66.4897279,0.294444444 Z M63.8289115,10.0194444 C63.8289115,11.5194444 64.0046258,16.2944444 66.4897279,16.2944444 C68.9748299,16.2944444 69.1505442,11.5194444 69.1505442,10.0194444 C69.1505442,8.34444444 68.9748299,3.74444444 66.4897279,3.74444444 C64.0046258,3.74444444 63.8289115,8.34444444 63.8289115,10.0194444 Z M74.572585,0.594444444 L78.3127891,0.594444444 L78.3127891,9.01944444 L78.3629932,9.01944444 L81.4756462,0.594444444 L85.2911564,0.594444444 L81.8019728,9.29444444 L85.7429932,19.4444444 L81.8019728,19.4444444 L78.3629932,9.84444444 L78.3127891,9.84444444 L78.3127891,19.4444444 L74.572585,19.4444444 L74.572585,0.594444444 Z M86.897687,0.594444444 L94.4282993,0.594444444 L94.4282993,4.09444444 L90.6378911,4.09444444 L90.6378911,8.19444444 L93.9764625,8.19444444 L93.9764625,11.6944444 L90.6378911,11.6944444 L90.6378911,15.9444444 L94.4785034,15.9444444 L94.4785034,19.4444444 L86.897687,19.4444444 L86.897687,0.594444444 Z M99.9256462,19.4444444 L96.1854421,19.4444444 L96.1854421,0.594444444 L99.9507483,0.594444444 C102.335442,0.594444444 106.602789,0.844444444 106.602789,5.99444444 C106.602789,8.06944444 105.774422,9.84444444 103.916871,10.8694444 L107.205238,19.4444444 L103.264218,19.4444444 L99.9758503,10.7444444 L99.9256462,10.7444444 L99.9256462,19.4444444 Z M99.9256462,3.66944444 L99.9256462,8.69444444 L100.578299,8.71944444 C102.285238,8.71944444 102.962993,7.56944444 102.962993,6.01944444 C102.962993,4.66944444 102.31034,3.56944444 100.427687,3.66944444 L99.9256462,3.66944444 Z M116.161088,1.21944444 L116.161088,4.84444444 C115.408027,4.19444444 114.479252,3.64444444 113.450068,3.64444444 C112.295374,3.64444444 111.567415,4.34444444 111.567415,5.49444444 C111.567415,8.59444444 117.265578,8.76944444 117.265578,13.8694444 C117.265578,17.2194444 115.332721,19.7444444 111.818435,19.7444444 C110.76415,19.7444444 109.458843,19.4194444 108.605374,18.7944444 L108.605374,15.2444444 C109.483946,15.8444444 110.337415,16.2444444 111.441905,16.2444444 C112.646803,16.2444444 113.60068,15.4444444 113.60068,14.1944444 C113.60068,12.7444444 112.445986,12.1944444 111.391701,11.4444444 C109.232925,9.99444444 107.902517,8.59444444 107.902517,5.84444444 C107.902517,2.86944444 109.634558,0.294444444 112.847619,0.294444444 C114.052517,0.294444444 115.131905,0.619444444 116.161088,1.21944444 Z" id="ASKBROKERS"></path>
                <path d="M120.266667,5.27777778 C120.712925,5.27777778 121.103401,5.22222222 121.438095,5 C121.828571,4.83333333 122.107483,4.55555556 122.330612,4.16666667 C122.553741,3.83333333 122.665306,3.33333333 122.665306,2.83333333 C122.609524,2.33333333 122.497959,1.94444444 122.27483,1.61111111 C122.051701,1.27777778 121.772789,1 121.382313,0.833333333 C121.047619,0.666666667 120.657143,0.555555556 120.266667,0.555555556 C119.597279,0.555555556 119.039456,0.777777778 118.537415,1.16666667 C118.035374,1.55555556 117.812245,2.11111111 117.70068,2.83333333 C117.70068,3.61111111 117.92381,4.16666667 118.42585,4.61111111 C119.039456,5.05555556 119.597279,5.27777778 120.266667,5.27777778 Z" id="Path"></path>
            </g>
        </g>
    </g>
</svg>