<?xml version="1.0" standalone="no"?>
<!DOCTYPE svg PUBLIC "-//W3C//DTD SVG 20010904//EN"
 "http://www.w3.org/TR/2001/REC-SVG-20010904/DTD/svg10.dtd">
<svg version="1.0" xmlns="http://www.w3.org/2000/svg"
 width="260.000000pt" height="260.000000pt" viewBox="0 0 260.000000 260.000000"
 preserveAspectRatio="xMidYMid meet">
<metadata>
Created by potrace 1.11, written by Peter Selinger 2001-2013
</metadata>
<g transform="translate(0.000000,260.000000) scale(0.100000,-0.100000)"
fill="#000000" stroke="none">
<path d="M0 1300 l0 -1300 1300 0 1300 0 0 1300 0 1300 -1300 0 -1300 0 0
-1300z m1595 13 c87 -368 160 -674 163 -680 3 -10 -29 -13 -140 -13 l-145 0
-23 115 -24 115 -137 0 -136 0 -23 -115 -23 -115 -134 0 c-123 0 -134 1 -129
18 2 9 73 315 157 680 l153 662 141 0 141 0 159 -667z"/>
<path d="M1281 1602 c-2 -29 -72 -509 -77 -534 l-6 -28 92 0 c91 0 92 0 87 23
-4 12 -22 117 -41 232 -19 116 -39 235 -44 265 -5 30 -10 49 -11 42z"/>
</g>
</svg>
